<?xml version="1.0" encoding="UTF-8"?>
<!-- Generator: Adobe Illustrator 27.0.0, SVG Export Plug-In . SVG Version: 6.00 Build 0)  -->
<svg xmlns="http://www.w3.org/2000/svg" xmlns:xlink="http://www.w3.org/1999/xlink" version="1.1" x="0px" y="0px" viewBox="0 0 115.9 40" style="enable-background:new 0 0 115.9 40;" xml:space="preserve">
<style type="text/css">
	.st0{display:none;}
	.st1{display:inline;fill:#EB753B;}
	.st2{display:inline;fill:#FFFFFF;}
	.st3{display:inline;fill-rule:evenodd;clip-rule:evenodd;fill:#FFFFFF;}
	.st4{display:inline;fill:#161616;}
	.st5{fill:#71BCBD;}
	.st6{fill:#FFFFFF;}
	.st7{fill:#8D8F91;}
</style>
<g id="Camada_1" class="st0">
	<path class="st1" d="M156.9,0h6.7c5.5,0,10,4.5,10,10v20c0,5.5-4.5,10-10,10h-6.7c-5.5,0-10-4.5-10-10V10   C146.9,4.5,151.4,0,156.9,0z"/>
	<path class="st2" d="M152.9,20.5c-0.6,0-1-0.4-1-1v-0.1c0-0.6,0.4-1,1-1h12.7c0.6,0,1,0.4,1,1v0.1c0,0.6-0.4,1-1,1H152.9z"/>
	<path class="st2" d="M158.1,14c0-0.6,0.4-1,1-1h0.3c0.6,0,1,0.4,1,1v11c0,0.6-0.4,1-1,1h-0.3c-0.6,0-1-0.4-1-1V14z"/>
	<path class="st3" d="M158.1,14c0-0.6,0.4-1,1-1h1.9c0.6,0,1,0.4,1,1v3.5c0,0.6,0.4,1,1,1h4.2c0.6,0,1,0.4,1,1v1.7c0,0.6-0.4,1-1,1   H163c-0.6,0-1,0.4-1,1v3.5c0,0.6-0.4,1-1,1h-1.9c-0.6,0-1-0.4-1-1v-3.5c0-0.6-0.4-1-1-1h-4.2c-0.6,0-1-0.4-1-1v-1.7   c0-0.6,0.4-1,1-1h4.2c0.6,0,1-0.4,1-1V14z M158.1,20.3c0-0.1-0.1-0.2-0.2-0.2h-4.1c-0.1,0-0.2,0.1-0.2,0.2l0,0   c0,0.1,0.1,0.2,0.2,0.2h4.1C158,20.5,158.1,20.5,158.1,20.3L158.1,20.3z M159.9,20.5c-0.1,0-0.2-0.1-0.2-0.2l0,0   c0-0.1,0.1-0.2,0.2-0.2h0.3c0.1,0,0.2,0.1,0.2,0.2l0,0c0,0.1-0.1,0.2-0.2,0.2H159.9z M160,22.2c-0.2,0-0.3,0.2-0.3,0.3v3.2   c0,0.2,0.2,0.3,0.3,0.3l0,0c0.2,0,0.3-0.2,0.3-0.3v-3.2C160.4,22.3,160.2,22.2,160,22.2L160,22.2z M162,20.3c0,0.1,0.1,0.2,0.2,0.2   h4.1c0.1,0,0.2-0.1,0.2-0.2l0,0c0-0.1-0.1-0.2-0.2-0.2h-4.1C162.1,20.1,162,20.2,162,20.3L162,20.3z M160.4,18.1   c0,0.2-0.2,0.3-0.3,0.3l0,0c-0.2,0-0.3-0.2-0.3-0.3V15c0-0.2,0.2-0.3,0.3-0.3l0,0c0.2,0,0.3,0.2,0.3,0.3V18.1z"/>
	<path class="st4" d="M118.5,37.9v-4.7h9.1V7.2h-9.1V2.5h23.1v4.7h-9.1v26.1h9.1v4.7H118.5z"/>
	<path class="st4" d="M89.1,37.9V2.5h12.7c3.6,0,6.3,0.9,8.2,2.6c1.9,1.7,2.8,4.2,2.8,7.5c0,5.6-2.6,8.9-7.7,9.9l9.1,15.4h-5.8   l-8.8-15.1h-5.5v15.1H89.1z M94.1,18.1h7.1c2.3,0,3.9-0.4,4.9-1.3c1-0.9,1.5-2.3,1.5-4.3c0-1.9-0.5-3.3-1.5-4.1   c-1-0.9-2.6-1.3-4.9-1.3h-7.1V18.1z"/>
	<path class="st4" d="M71.4,38.6c-4.3,0-7.6-1.6-10-4.9c-2.4-3.3-3.5-7.8-3.5-13.5c0-6,1.2-10.5,3.7-13.6c2.5-3.2,6.1-4.7,10.9-4.7   c2,0,3.7,0.3,5.3,0.9c1.6,0.6,3.1,1.5,4.6,2.8l-2.6,4c-2.2-1.9-4.6-2.9-7.3-2.9c-6.3,0-9.5,4.5-9.5,13.6c0,9.1,3.1,13.6,9.3,13.6   c2.3,0,4.3-0.8,6-2.3v-8.9h-6.7V18h11.7v20H80l-0.5-2.6c-1.2,1.1-2.5,2-3.8,2.5C74.4,38.3,73,38.6,71.4,38.6z"/>
	<path class="st4" d="M41.2,38.6c-4.4,0-7.8-1.5-10.1-4.6c-2.3-3.1-3.4-7.7-3.4-13.7c0-6.1,1.1-10.7,3.4-13.7   c2.3-3.1,5.7-4.6,10.1-4.6s7.8,1.5,10,4.6c2.3,3.1,3.4,7.7,3.4,13.7c0,6-1.1,10.6-3.4,13.7C49,37,45.6,38.6,41.2,38.6z M41.2,33.8   c5.6,0,8.3-4.5,8.3-13.6c0-9.1-2.8-13.6-8.3-13.6s-8.3,4.5-8.3,13.6C32.9,29.3,35.6,33.8,41.2,33.8z"/>
	<path class="st4" d="M0,37.9V2.5h9.1c10.4,0,15.5,5.9,15.5,17.7c0,11.8-5.1,17.7-15.3,17.7H0z M5,33.2h3.7c3.7,0,6.4-1.1,8.1-3.2   c1.7-2.1,2.6-5.4,2.6-9.9c0-4.5-0.9-7.8-2.6-9.9c-1.7-2.1-4.4-3.2-8.1-3.2H5V33.2z"/>
</g>
<g id="Camada_2">
	<path class="st5" d="M68,11.5c-0.4-0.9-0.8-1.3-1.2-1.3c-0.4,0-1.1,0.2-2.1,0.7c-1.1,0.5-1.6,0.9-1.6,1.2c0,0.2,0.2,0.5,0.6,1   c1.2,1.6,1.8,3.2,1.8,4.6c0,1.5-0.4,3-1.3,4.7c-0.8,1.6-1.9,2.9-3.2,3.9c-1.3,1-2.5,1.5-3.6,1.5c-0.8,0-1.4-0.2-1.9-0.6   c-0.5-0.4-0.8-0.9-0.8-1.5c0-1,0.5-2.4,1.4-4.2c0.9-1.8,1.5-3.2,1.8-4.1c0.2-0.9,0.4-1.6,0.4-2.3c0-1.5-0.5-2.7-1.5-3.6   c-1-0.9-2.3-1.3-3.9-1.3c-2.1,0-4,0.7-5.5,2.2c-1.6,1.5-2.4,3-2.4,4.6c0,0.6,0.2,1.2,0.6,1.7c0.4,0.5,0.9,0.8,1.4,0.8   c0.4,0,0.9-0.2,1.4-0.6c0.5-0.4,0.8-0.8,0.8-1.1c0-0.2-0.3-0.5-0.8-0.8c-0.5-0.4-0.8-0.9-0.8-1.7c0-0.9,0.4-1.8,1.3-2.6   c0.9-0.8,1.8-1.2,2.8-1.2c0.6,0,1.1,0.2,1.5,0.6c0.4,0.4,0.5,0.9,0.5,1.6c0,1-0.6,2.8-1.8,5.2c-1.3,2.5-2,4.5-2,5.8   c0,1.4,0.5,2.6,1.6,3.4c1.1,0.9,2.5,1.3,4.2,1.3c2.1,0,4.1-0.8,6.1-2.3c2-1.5,3.6-3.5,4.8-6c1.3-2.5,1.9-4.8,1.9-6.8   C68.6,13.3,68.4,12.4,68,11.5"/>
	<path class="st5" d="M73,13.2c-0.6,0-1.4-0.2-2.3-0.6c-0.4,1-0.9,1.8-1.6,2.6c0.7,0.5,1.6,0.7,2.7,0.7c2.1,0,3.2-1.1,3.2-3.2   C74.3,13.1,73.7,13.2,73,13.2"/>
	<path class="st5" d="M105.7,26.3c-0.6,0.4-1.1,0.6-1.6,0.6c-0.7,0-1.1-0.4-1.1-1.1c0-0.7,0.4-2.1,1.2-4l1.6-3.9h-1l-3.7,1.5   c-0.6-1-1.7-1.5-3.2-1.5c-1.2,0-2.6,0.4-4.1,1.1c-1.6,0.7-2.8,1.7-3.8,2.9c-1,1.2-1.5,2.5-1.5,3.8c0,0.4,0,0.7,0.1,1   c-0.3,0.1-0.5,0.2-0.8,0.2c-0.3,0-0.6-0.1-0.8-0.3c-0.2-0.2-0.3-0.5-0.3-0.8c0-1.4,1.2-5.6,3.6-12.5c0.6-1.7,0.9-2.6,0.9-2.7   c0-0.1-0.1-0.2-0.4-0.2c-0.7,0-2.2,0.2-4.3,0.5l-2.6,7.9c-0.4-0.3-0.8-0.5-1.2-0.7c-0.4-0.1-0.9-0.2-1.5-0.2   c-2.3,0-4.4,0.8-6.3,2.5c-2,1.7-2.9,3.5-2.9,5.4c0,0.3,0,0.5,0.1,0.7c-0.2,0-0.4,0.1-0.6,0.1c-0.3,0-0.5-0.1-0.7-0.3   c-0.2-0.2-0.3-0.4-0.3-0.7c0-0.7,0.4-1.9,1.1-3.7l1.8-4.1h-0.2l-4.6,0.7c-1.7,3.3-2.6,5.9-2.6,7.8c0,0.9,0.3,1.6,0.8,2.2   c0.5,0.6,1.2,0.9,2,0.9c1,0,2.3-0.5,4-1.6c0.1,0.2,0.3,0.3,0.5,0.5c0.8,0.7,1.7,1.1,2.7,1.1c0.9,0,2-0.3,3.2-0.9   c1.2-0.6,2.2-1.5,3.2-2.7c0,1.2,0.3,2.1,0.8,2.7c0.5,0.6,1.2,0.9,2,0.9c0.7,0,1.5-0.2,2.4-0.7c0.4-0.2,0.9-0.5,1.5-0.9   c0.1,0.1,0.2,0.3,0.4,0.4c0.7,0.7,1.6,1.1,2.7,1.1c1.1,0,2.1-0.3,3.2-0.9c1-0.6,2.1-1.5,3.3-2.8c-0.1,2.4,0.8,3.7,2.7,3.7   c0.8,0,1.6-0.2,2.4-0.6c0.8-0.4,2.2-1.3,4.2-2.6v-1.5C107.1,25.4,106.3,25.9,105.7,26.3 M81.9,24.6c-1,1.5-2.1,2.2-3.3,2.2   c-0.5,0-1-0.1-1.3-0.4c-0.3-0.3-0.5-0.7-0.5-1.1c0-1.2,0.5-2.6,1.6-4.1c1.1-1.5,2.1-2.3,3.3-2.3c0.5,0,0.9,0.2,1.3,0.5   c0.3,0.3,0.5,0.7,0.5,1.2C83.5,21.8,83,23.2,81.9,24.6z M98.3,24.6c-1.1,1.5-2.2,2.3-3.4,2.3c-0.5,0-0.9-0.2-1.2-0.4   c-0.3-0.3-0.5-0.7-0.5-1.2c0-1.3,0.5-2.6,1.6-4.1c1.1-1.5,2.2-2.2,3.4-2.2c0.5,0,0.9,0.1,1.2,0.4c0.3,0.3,0.5,0.7,0.5,1.2   C99.9,21.7,99.3,23.1,98.3,24.6z"/>
	<path class="st6" d="M45,6.8c0-0.5-0.1-0.9-0.1-1.1c0.6,0.3,1.2,0.4,1.6,0.4c0.2,0,0.4,0,0.6-0.1c0.2-0.1,0.3-0.1,0.4-0.3   c0.1-0.1,0.1-0.2,0.1-0.4c0-0.1,0-0.2-0.1-0.3c-0.1-0.1-0.2-0.2-0.3-0.4c-0.2-0.2-0.5-0.5-0.9-0.8c-0.2-0.2-0.4-0.3-0.4-0.4   c-0.2-0.2-0.3-0.3-0.4-0.5c-0.1-0.1-0.2-0.3-0.2-0.4c0-0.1-0.1-0.3-0.1-0.4c0-0.3,0.1-0.6,0.2-0.8c0.2-0.3,0.4-0.5,0.7-0.6   c0.3-0.1,0.7-0.2,1.2-0.2c0.4,0,0.9,0.1,1.5,0.2c0,0.3,0,0.7,0.1,1.1c-0.5-0.2-0.9-0.3-1.3-0.3c-0.3,0-0.5,0.1-0.7,0.2   c-0.2,0.1-0.3,0.3-0.3,0.5c0,0,0,0.1,0,0.2c0,0.1,0,0.1,0.1,0.2c0,0,0.1,0.1,0.1,0.2C46.9,2.8,47,2.9,47.1,3   c0.1,0.1,0.2,0.2,0.3,0.3L48,3.7c0.1,0.1,0.3,0.2,0.4,0.3c0.1,0.1,0.2,0.2,0.3,0.3c0.1,0.1,0.1,0.2,0.2,0.3C48.9,4.8,49,4.9,49,5   c0,0.1,0,0.2,0,0.3c0,0.3-0.1,0.5-0.2,0.7c-0.1,0.2-0.3,0.4-0.5,0.6c-0.2,0.1-0.5,0.3-0.7,0.3C47.3,7,47,7,46.7,7   C46.5,7,46.3,7,46,7C45.8,7,45.4,6.9,45,6.8"/>
	<path class="st6" d="M50.3,3.2c0-0.2,0.1-0.4,0.1-0.5c0-0.1,0-0.2,0.1-0.4c0.4-0.1,0.8-0.2,1.1-0.2c0.3,0,0.6-0.1,0.9-0.1   c0.3,0,0.7,0,0.9,0.1c0.3,0.1,0.5,0.2,0.7,0.4c0.2,0.2,0.2,0.4,0.2,0.7c0,0.2,0,0.6-0.1,1.3c0,0.7-0.1,1.5-0.1,2.2   c-0.2,0-0.5,0-0.6,0c-0.2,0-0.4,0-0.7,0c0-0.4,0.1-0.8,0.1-1.3L53,4.5c-0.1,0.1-0.2,0.1-0.3,0.2c-0.1,0-0.1,0.1-0.2,0.1   c-0.1,0-0.2,0.1-0.4,0.1c-0.2,0.1-0.4,0.1-0.5,0.1c-0.1,0-0.2,0.1-0.3,0.1c-0.1,0.1-0.2,0.1-0.2,0.2C51,5.4,51,5.4,51,5.5   c0,0.1,0,0.1,0,0.2c0,0.1,0,0.2,0.1,0.3c0.1,0.1,0.2,0.2,0.3,0.2c0.1,0,0.2,0.1,0.4,0.1c0.1,0,0.2,0,0.3,0c0.1,0,0.3-0.1,0.4-0.1   c-0.1,0.2-0.1,0.4-0.2,0.8C52,7,51.9,7,51.7,7c-0.1,0-0.3,0-0.4,0c-0.4,0-0.7-0.1-1-0.2c-0.3-0.1-0.4-0.3-0.6-0.5   c-0.1-0.2-0.2-0.5-0.2-0.7c0-0.1,0-0.3,0.1-0.4c0-0.1,0.1-0.2,0.2-0.4c0.1-0.1,0.2-0.2,0.3-0.3c0.1-0.1,0.3-0.2,0.6-0.3   C51.2,4.2,51.5,4.1,52,4C52.1,4,52.2,4,52.3,4c0.1,0,0.2-0.1,0.3-0.1c0.1,0,0.1-0.1,0.2-0.1c0.1-0.1,0.1-0.1,0.1-0.2   c0-0.1,0-0.1,0-0.2c0-0.1,0-0.2-0.1-0.3c-0.1-0.1-0.2-0.1-0.3-0.2c-0.1,0-0.3,0-0.4,0C51.6,2.8,51,3,50.3,3.2"/>
	<path class="st6" d="M55.3,6.9c0.1-0.7,0.1-1.5,0.2-2.4c0-0.9,0.1-1.7,0.1-2.3c0.3,0,0.5,0,0.7,0c0.2,0,0.4,0,0.6,0L56.8,3   c0.1-0.1,0.2-0.2,0.3-0.3c0.1-0.1,0.2-0.2,0.3-0.2c0.1-0.1,0.2-0.1,0.4-0.2c0.1,0,0.3-0.1,0.4-0.1c0.2,0,0.3,0,0.5,0   c0.3,0,0.5,0,0.8,0.1c0.3,0.1,0.5,0.2,0.6,0.3c0.2,0.2,0.3,0.3,0.3,0.5c0,0.2,0.1,0.4,0.1,0.6c0,0.1,0,0.2,0,0.4l-0.1,2   c0,0.3,0,0.6,0,0.9c-0.2,0-0.5,0-0.6,0c-0.2,0-0.5,0-0.7,0C59,6.7,59,6.2,59,5.5c0-0.7,0.1-1.1,0.1-1.3c0-0.2,0-0.4-0.1-0.6   c-0.1-0.1-0.2-0.3-0.4-0.3c-0.2-0.1-0.3-0.1-0.5-0.1c-0.2,0-0.4,0-0.5,0.1c-0.2,0.1-0.3,0.2-0.4,0.3c-0.1,0.1-0.2,0.3-0.3,0.5   c-0.1,0.2-0.1,0.6-0.2,1.1c0,0.4-0.1,1-0.1,1.8c-0.2,0-0.5,0-0.6,0C55.8,6.9,55.6,6.9,55.3,6.9"/>
	<path class="st6" d="M66,4.5c0-0.2,0-0.3,0-0.5c0-0.3-0.1-0.6-0.2-0.8c-0.1-0.2-0.3-0.5-0.4-0.6c-0.2-0.2-0.4-0.3-0.7-0.4   c-0.3-0.1-0.6-0.1-0.9-0.1c-0.3,0-0.7,0-1,0.1c-0.3,0.1-0.6,0.3-0.8,0.5c-0.2,0.2-0.4,0.5-0.6,0.9c-0.1,0.4-0.2,0.7-0.2,1.1   c0,0.3,0.1,0.7,0.2,1C61.5,6,61.7,6.3,62,6.5c0.2,0.2,0.5,0.4,0.8,0.4C63.1,7,63.5,7,63.9,7c0.2,0,0.5,0,0.7,0   c0.2,0,0.5-0.1,0.8-0.1c0.1-0.5,0.1-0.8,0.2-1C65.3,6,65,6.1,64.7,6.1c-0.2,0-0.5,0.1-0.7,0.1c-0.2,0-0.4,0-0.6-0.1   C63.3,6,63.1,5.9,63,5.8c-0.1-0.1-0.2-0.3-0.3-0.4c-0.1-0.2-0.1-0.4-0.1-0.6c0-0.1,0-0.2,0-0.3L66,4.5z M62.7,3.7   c0-0.1,0.1-0.2,0.1-0.3c0.1-0.1,0.1-0.2,0.2-0.3C63.2,3,63.3,3,63.4,2.9c0.1,0,0.2-0.1,0.4-0.1c0.1,0,0.2,0,0.3,0   c0.1,0,0.2,0.1,0.3,0.1c0.1,0,0.1,0.1,0.2,0.2c0.1,0.1,0.1,0.2,0.1,0.2c0,0.1,0,0.2,0.1,0.2c0,0.1,0,0.2,0,0.3h-2.2   C62.6,3.9,62.7,3.7,62.7,3.7z"/>
	<path class="st6" d="M71.7,3.6c-0.1-0.3-0.3-0.6-0.5-0.8c-0.2-0.2-0.5-0.4-0.8-0.5c-0.4-0.1-0.7-0.1-1.2-0.1c-0.3,0-0.6,0-1,0   c-0.3,0-0.8,0.1-1.4,0.2c0,0.9,0,2-0.1,3.3c-0.1,1.4-0.1,2.5-0.2,3.3l0.7,0c0.2,0,0.4,0,0.7,0c0-0.3,0-0.4,0-0.5V8.3l0.1-2   c0.1,0.1,0.2,0.3,0.3,0.3c0.1,0.1,0.2,0.1,0.3,0.2C68.8,6.9,69,6.9,69.1,7C69.3,7,69.5,7,69.7,7C70,7,70.3,7,70.5,6.9   c0.3-0.1,0.5-0.3,0.7-0.5c0.2-0.3,0.3-0.5,0.4-0.8c0.1-0.3,0.1-0.6,0.1-1C71.8,4.2,71.8,3.9,71.7,3.6 M70.4,5.3   c-0.1,0.3-0.2,0.5-0.4,0.6c-0.2,0.1-0.4,0.2-0.6,0.2c-0.2,0-0.3,0-0.5-0.1c-0.2-0.1-0.3-0.2-0.4-0.3c-0.1-0.1-0.2-0.3-0.2-0.5   c0-0.2-0.1-0.4-0.1-0.5c0-0.1,0-0.3,0-0.5l0-0.5c0-0.1,0-0.3,0-0.4c0.4-0.1,0.7-0.2,1-0.2c0.2,0,0.5,0.1,0.7,0.2   c0.2,0.1,0.3,0.3,0.5,0.5c0.1,0.2,0.2,0.5,0.2,0.8C70.5,4.8,70.5,5.1,70.4,5.3z"/>
	<path class="st7" d="M1.5,13.8c-1.1,4.9,1.4,8.7,2,9.6c1.3,2.1,2.7,4.9,3.7,8.3c0.7,2.2,1.1,4.2,1.3,6.1c0.7,0,1.2,0,2-0.1   c-0.1,0,0,0,0,0c-0.3-1.8-0.7-3.9-1.3-6.1c-1.1-3.5-2.5-6.2-3.7-8.3c-0.6-0.9-3.1-4.7-2-9.6C4.6,8.5,9.3,3.3,14,2.4   C8.7,1.9,2.8,7.9,1.5,13.8"/>
	<path class="st6" d="M34.1,11.3c-0.6-0.5-1.8-1.4-3.5-1.5c-1.4-0.1-2.5-0.1-3.3,0c0,0,0,0,0,0c-1.6,0.2-2.6,0.7-3.7,1.2   c0,0,0-0.3,0-0.7c-0.1-1.7-0.8-6-6.1-7.1c-0.9-0.2-1.8-0.2-2.6,0c0,0,0,0,0,0C10.3,4,5.9,9,4.8,14c-1,4.7,1.3,8.3,1.9,9.2   c1.2,2,2.6,4.7,3.6,8c0.4,1.4,0.8,2.8,1,4.1c0.1-0.3,0.1-0.6,0.2-0.9c0.4-1.5,0.9-2.3,1.3-2.4c0,0,0,0,0.1,0c0.3,0,0.8,0.2,1.5,0.5   c1.7,0.8,3.3,1.3,4.8,1.4c0.8,0.1,1.5,0,2.1-0.1c2.1-0.4,4.2-1.3,6.3-2.8c2.1-1.5,3.7-3.2,4.9-5.2c1.1-2,1.6-3.7,1.3-5.3   c-0.1-0.5-0.3-1-0.5-1.4c-0.2-0.4-0.5-0.7-0.8-1c-0.4-0.4-0.9-0.6-1.4-0.7c-0.3,0-0.6,0-1,0c-1.3,0.2-3.2,1.2-5.6,2.9   c-2.4,1.7-4.2,2.8-5.4,3.4C18,24.2,17,24.5,16,24.7c-2.1,0.4-3.9,0-5.4-1.1c-1.5-1.1-2.4-2.8-2.8-4.9c-0.5-2.9,0.1-5.5,1.8-8   c1.7-2.5,3.7-3.9,6-4.3c0.9-0.1,1.7,0,2.6,0.5c0.6,0.4,1.1,0.8,1.3,1.3c0.1,0.1,0.1,0.3,0.1,0.4c0.1,0.5-0.1,1.2-0.6,2   c-0.3,0.6-0.7,1-1,1.2c-0.1,0.1-0.3,0.1-0.4,0.2c-0.3,0.1-0.7-0.2-1.4-0.9c-0.2-0.2-0.5-0.4-0.8-0.5c-0.5-0.2-1.1-0.3-1.7-0.1   c-1,0.2-1.9,0.7-2.6,1.5c-0.3,0.3-0.5,0.6-0.8,0.9c-0.9,1.4-1.3,2.7-1.1,4.1c0.1,0.9,0.5,1.5,1.1,1.9c0.1,0,0.1,0.1,0.1,0.1   c0.6,0.3,1.3,0.4,2.2,0.3c1.5-0.3,3.8-1.5,6.9-3.7c3.3-2.4,5.9-3.7,7.8-4.1c0.1,0,0.3,0,0.4-0.1c1.8-0.2,3.5,0.3,4.8,1.4   c1.5,1.2,2.4,3,2.8,5.3c0.5,2.8-0.1,5.8-1.9,8.8c-1.5,2.7-3.7,5-6.4,7.2c1.9-0.7,3.5-1.7,5.2-3.2c1.3-1.2,5.2-4.7,5.6-10   C38.6,15.1,34.7,11.8,34.1,11.3 M16.9,4.3C13.8,3.8,10.2,6.3,9,7.8c0.4-1.6,7.5-7.2,12.4-1.5C20.9,5.8,19.4,4.6,16.9,4.3z"/>
	<path class="st6" d="M100.2,36.2h3c0-0.2,0-0.4,0-0.5c0-0.1-0.1-0.2-0.1-0.4c-0.1-0.1-0.2-0.2-0.3-0.3c-0.1-0.1-0.2-0.2-0.4-0.2   c-0.2,0-0.3-0.1-0.5-0.1c-0.2,0-0.4,0-0.6,0.1c-0.2,0.1-0.3,0.1-0.5,0.2c-0.1,0.1-0.2,0.2-0.3,0.3c-0.1,0.1-0.2,0.3-0.2,0.4   C100.3,35.8,100.3,36,100.2,36.2 M103.7,38.6c0,0.2-0.1,0.4-0.1,0.7c-0.3,0.1-0.6,0.1-0.8,0.2c-0.2,0-0.5,0-0.7,0   c-0.4,0-0.8,0-1.1-0.2c-0.3-0.1-0.6-0.3-0.9-0.5c-0.2-0.3-0.4-0.5-0.5-0.9c-0.1-0.3-0.2-0.7-0.2-1c0-0.5,0.1-1,0.3-1.4   c0.2-0.4,0.5-0.8,0.9-1c0.4-0.2,0.9-0.4,1.5-0.4c0.3,0,0.6,0,0.9,0.1c0.3,0.1,0.5,0.2,0.7,0.4c0.2,0.2,0.3,0.4,0.4,0.7   c0.1,0.3,0.2,0.6,0.2,0.9c0,0.1,0,0.2,0,0.4h-3.9c0,0.2,0,0.3,0,0.4c0,0.4,0.1,0.7,0.2,1c0.2,0.3,0.4,0.5,0.7,0.7   c0.3,0.2,0.6,0.2,1,0.2C102.5,38.9,103,38.8,103.7,38.6z M95.8,39.4c0.1-2,0.2-3.5,0.2-4.7l0-0.5c0.2,0,0.3,0,0.4,0   c0.1,0,0.3,0,0.4,0l0,0.8c0.1-0.2,0.2-0.4,0.3-0.5c0.1-0.1,0.2-0.2,0.3-0.3c0.1-0.1,0.3-0.1,0.4-0.2c0.2,0,0.3-0.1,0.5-0.1   c0.1,0,0.3,0,0.4,0.1c0,0.2,0,0.5,0,0.8c-0.2-0.1-0.4-0.1-0.6-0.1c-0.2,0-0.4,0-0.5,0.1c-0.2,0.1-0.3,0.2-0.4,0.3   c-0.1,0.1-0.2,0.3-0.3,0.5c-0.1,0.2-0.1,0.3-0.2,0.6c0,0.2-0.1,0.7-0.1,1.3c0,0.5,0,0.9,0,1.5v0.3c-0.2,0-0.3,0-0.4,0   C96.1,39.4,96,39.4,95.8,39.4z M90.6,35.1c0-0.1,0.1-0.4,0.1-0.7c0.4-0.1,0.8-0.2,1.1-0.2c0.3,0,0.6-0.1,0.9-0.1   c0.3,0,0.6,0,0.9,0.1c0.3,0.1,0.5,0.1,0.7,0.3c0.2,0.1,0.3,0.3,0.4,0.4c0.1,0.2,0.1,0.3,0.1,0.5c0,0.2,0,0.6-0.1,1.2   c0,0.6-0.1,1.1-0.1,1.5c0,0.5,0,0.9,0,1.3c-0.2,0-0.3,0-0.4,0c-0.1,0-0.3,0-0.5,0l0.1-1.4l0.1-1.6c-0.1,0.1-0.2,0.2-0.3,0.2   c-0.1,0-0.1,0.1-0.2,0.1c-0.1,0-0.2,0.1-0.2,0.1c-0.1,0-0.3,0.1-0.5,0.2C92.2,37,92,37,91.9,37.1c-0.2,0.1-0.4,0.2-0.6,0.2   c-0.1,0.1-0.2,0.2-0.3,0.2c-0.1,0.1-0.2,0.2-0.2,0.3c0,0.1-0.1,0.2-0.1,0.3c0,0.2,0.1,0.3,0.2,0.5c0.1,0.1,0.2,0.2,0.4,0.3   c0.2,0.1,0.4,0.1,0.6,0.1c0.1,0,0.3,0,0.5,0c0.2,0,0.4-0.1,0.6-0.2c0,0.1-0.1,0.3-0.2,0.6c-0.2,0-0.4,0.1-0.6,0.1   c-0.2,0-0.3,0-0.4,0c-0.5,0-0.8-0.1-1.1-0.2c-0.3-0.1-0.5-0.3-0.6-0.5c-0.1-0.2-0.2-0.5-0.2-0.7c0-0.2,0-0.3,0.1-0.4   c0-0.1,0.1-0.2,0.2-0.4c0.1-0.1,0.2-0.2,0.3-0.3c0.1-0.1,0.3-0.2,0.5-0.3c0.2-0.1,0.3-0.1,0.6-0.2c0.2-0.1,0.6-0.2,1-0.3   c0.2,0,0.3-0.1,0.4-0.1c0.1,0,0.2-0.1,0.3-0.1c0.1,0,0.2-0.1,0.2-0.1c0.1,0,0.1-0.1,0.2-0.2c0-0.1,0.1-0.1,0.1-0.2   c0-0.1,0-0.1,0-0.2c0-0.2-0.1-0.3-0.2-0.4c-0.1-0.1-0.3-0.2-0.4-0.3c-0.2,0-0.4-0.1-0.6-0.1c-0.2,0-0.4,0-0.7,0.1   c-0.2,0-0.4,0.1-0.6,0.1C91,34.9,90.8,35,90.6,35.1z M89.2,38.5c0,0.2-0.1,0.5-0.1,0.8c-0.7,0.1-1.3,0.2-1.8,0.2   c-0.5,0-1-0.1-1.4-0.2c-0.5-0.2-0.9-0.4-1.2-0.7c-0.3-0.3-0.6-0.7-0.7-1.1c-0.2-0.4-0.2-0.9-0.2-1.4c0-0.5,0.1-1,0.3-1.5   c0.2-0.5,0.4-0.9,0.8-1.2c0.4-0.3,0.8-0.6,1.3-0.8c0.5-0.2,1-0.3,1.6-0.3c0.6,0,1.2,0.1,1.7,0.2c0,0.2,0,0.4,0.1,0.8   c-0.4-0.1-0.7-0.2-1-0.2c-0.3,0-0.5-0.1-0.8-0.1c-0.4,0-0.8,0.1-1.2,0.2c-0.4,0.1-0.7,0.3-1,0.6c-0.3,0.3-0.5,0.6-0.7,1   c-0.2,0.4-0.2,0.8-0.2,1.2c0,0.4,0.1,0.8,0.2,1.1c0.1,0.4,0.3,0.7,0.6,0.9c0.3,0.2,0.5,0.4,0.9,0.6c0.3,0.1,0.7,0.2,1.2,0.2   C87.9,38.8,88.5,38.7,89.2,38.5z M74.7,39.4l0.1-2.2l0.1-3l0-1.7l0.5,0c0.1,0,0.3,0,0.5,0l-0.1,1.8l0,1.1c0.1-0.1,0.2-0.3,0.2-0.3   c0.1-0.1,0.1-0.2,0.2-0.3c0.1-0.1,0.2-0.2,0.3-0.2c0.1-0.1,0.2-0.1,0.3-0.2c0.1,0,0.3-0.1,0.5-0.1c0.2,0,0.4,0,0.6,0   c0.3,0,0.6,0,0.8,0.1c0.3,0.1,0.5,0.2,0.7,0.3c0.2,0.2,0.3,0.3,0.4,0.5c0.1,0.2,0.1,0.4,0.1,0.6c0,0.1,0,0.2,0,0.3   c0,0.2,0,0.5,0,0.7l-0.1,1.9c0,0.2,0,0.5,0,0.7c-0.2,0-0.3,0-0.5,0c-0.1,0-0.3,0-0.5,0c0-0.4,0.1-0.9,0.1-1.7   c0-0.8,0.1-1.3,0.1-1.6c0-0.3-0.1-0.5-0.1-0.7c-0.1-0.2-0.3-0.3-0.5-0.4c-0.2-0.1-0.5-0.1-0.8-0.1c-0.3,0-0.5,0-0.7,0.1   c-0.2,0.1-0.4,0.2-0.5,0.3c-0.1,0.1-0.3,0.3-0.3,0.5c-0.1,0.2-0.2,0.4-0.2,0.6c-0.1,0.3-0.1,0.8-0.1,1.3c0,0.3,0,0.9-0.1,1.8   c-0.2,0-0.3,0-0.4,0C75.1,39.4,75,39.4,74.7,39.4z M74,38.7c0,0.2-0.1,0.4-0.1,0.7c-0.2,0.1-0.4,0.1-0.6,0.1c-0.1,0-0.3,0-0.4,0   c-0.3,0-0.5,0-0.7-0.1c-0.2-0.1-0.3-0.2-0.4-0.4c-0.1-0.2-0.1-0.4-0.1-0.7c0,0,0-0.1,0-0.2c0-0.1,0-0.4,0-1l0.1-2.3h-0.7   c0-0.1,0-0.3,0-0.6h0.7c0-0.2,0-0.5,0-1c0.3-0.1,0.6-0.1,0.8-0.2c0,0.5,0,0.9,0,1.1h1.4c0,0.2,0,0.4,0,0.6h-1.4l-0.1,2.9l0,0.2   c0,0.2,0,0.4,0.1,0.6c0.1,0.1,0.1,0.2,0.3,0.3c0.1,0.1,0.2,0.1,0.4,0.1c0.1,0,0.2,0,0.3,0C73.6,38.8,73.7,38.8,74,38.7z M69,39.4   c0.1-1,0.1-2.3,0.2-3.7c0-1,0.1-2.1,0.1-3.2l0.5,0c0.1,0,0.3,0,0.5,0l-0.2,3l-0.1,3l0,0.9c-0.2,0-0.4,0-0.5,0   C69.5,39.4,69.3,39.4,69,39.4z M63.8,35.1c0-0.1,0.1-0.4,0.1-0.7c0.4-0.1,0.8-0.2,1.1-0.2c0.3,0,0.6-0.1,0.9-0.1   c0.3,0,0.6,0,0.9,0.1c0.3,0.1,0.5,0.1,0.7,0.3c0.2,0.1,0.3,0.3,0.4,0.4c0.1,0.2,0.1,0.3,0.1,0.5c0,0.2,0,0.6-0.1,1.2   c0,0.6-0.1,1.1-0.1,1.5c0,0.5,0,0.9,0,1.3c-0.2,0-0.3,0-0.4,0c-0.1,0-0.3,0-0.5,0l0.1-1.4l0.1-1.6c-0.1,0.1-0.2,0.2-0.3,0.2   c-0.1,0-0.1,0.1-0.2,0.1c-0.1,0-0.2,0.1-0.2,0.1c-0.1,0-0.3,0.1-0.5,0.2c-0.3,0.1-0.4,0.1-0.6,0.2c-0.2,0.1-0.4,0.2-0.6,0.2   c-0.1,0.1-0.2,0.2-0.3,0.2c-0.1,0.1-0.2,0.2-0.2,0.3c0,0.1-0.1,0.2-0.1,0.3c0,0.2,0.1,0.3,0.2,0.5c0.1,0.1,0.2,0.2,0.4,0.3   c0.2,0.1,0.4,0.1,0.6,0.1c0.1,0,0.3,0,0.5,0c0.2,0,0.4-0.1,0.6-0.2c0,0.1-0.1,0.3-0.2,0.6c-0.2,0-0.4,0.1-0.6,0.1   c-0.2,0-0.3,0-0.4,0c-0.5,0-0.8-0.1-1.1-0.2c-0.3-0.1-0.5-0.3-0.6-0.5c-0.1-0.2-0.2-0.5-0.2-0.7c0-0.2,0-0.3,0.1-0.4   c0-0.1,0.1-0.2,0.2-0.4c0.1-0.1,0.2-0.2,0.3-0.3c0.1-0.1,0.3-0.2,0.5-0.3c0.2-0.1,0.3-0.1,0.6-0.2c0.2-0.1,0.6-0.2,1-0.3   c0.2,0,0.3-0.1,0.4-0.1c0.1,0,0.2-0.1,0.3-0.1c0.1,0,0.2-0.1,0.2-0.1c0.1,0,0.1-0.1,0.2-0.2c0.1-0.1,0.1-0.1,0.1-0.2   c0-0.1,0-0.1,0-0.2c0-0.2-0.1-0.3-0.2-0.4c-0.1-0.1-0.3-0.2-0.4-0.3c-0.2,0-0.4-0.1-0.6-0.1c-0.2,0-0.4,0-0.7,0.1   c-0.2,0-0.4,0.1-0.6,0.1C64.3,34.9,64.1,35,63.8,35.1z M58.7,36.2h3c0-0.2,0-0.4,0-0.5c0-0.1-0.1-0.2-0.1-0.4   c-0.1-0.1-0.2-0.2-0.3-0.3c-0.1-0.1-0.2-0.2-0.4-0.2c-0.2,0-0.3-0.1-0.5-0.1c-0.2,0-0.4,0-0.6,0.1c-0.2,0.1-0.3,0.1-0.5,0.2   c-0.1,0.1-0.2,0.2-0.3,0.3c-0.1,0.1-0.2,0.3-0.2,0.4C58.8,35.8,58.8,36,58.7,36.2z M62.2,38.6c0,0.2-0.1,0.4-0.1,0.7   c-0.3,0.1-0.6,0.1-0.8,0.2c-0.2,0-0.5,0-0.7,0c-0.4,0-0.8,0-1.1-0.2c-0.3-0.1-0.6-0.3-0.9-0.5c-0.2-0.3-0.4-0.5-0.5-0.9   c-0.1-0.3-0.2-0.7-0.2-1c0-0.5,0.1-1,0.3-1.4c0.2-0.4,0.5-0.8,0.9-1c0.4-0.2,0.9-0.4,1.5-0.4c0.3,0,0.6,0,0.9,0.1   c0.3,0.1,0.5,0.2,0.7,0.4c0.2,0.2,0.3,0.4,0.4,0.7c0.1,0.3,0.2,0.6,0.2,0.9c0,0.1,0,0.2,0,0.4h-3.9c0,0.2,0,0.3,0,0.4   c0,0.4,0.1,0.7,0.2,1c0.2,0.3,0.4,0.5,0.7,0.7c0.3,0.2,0.6,0.2,1,0.2C61,38.9,61.5,38.8,62.2,38.6z M50.4,39.4l0.2-3.1l0.1-2.3   l0-0.8c0-0.1,0-0.4,0-0.7l0.5,0l0.5,0l-0.1,3.1h4.1l0.1-2.4c0-0.1,0-0.3,0-0.6l0.5,0l0.5,0c-0.1,1.3-0.2,2.6-0.2,3.6   c0,1.1-0.1,2.2-0.1,3.3l-0.5,0c-0.1,0-0.2,0-0.5,0c0.1-1.1,0.1-2.1,0.2-3.2h-4.1l-0.1,2.1l0,1.1l-0.5,0   C50.8,39.4,50.6,39.4,50.4,39.4z"/>
</g>
</svg>